<svg xmlns="http://www.w3.org/2000/svg" viewBox="0 0 240 240" role="img" aria-label="QR Plin">
  <rect width="240" height="240" fill="#fff"/>
  <rect x="8" y="8" width="64" height="64" fill="#0ea5e9"/>
  <rect x="168" y="8" width="64" height="64" fill="#0ea5e9"/>
  <rect x="8" y="168" width="64" height="64" fill="#0ea5e9"/>
  <g fill="#111827">
    <rect x="92" y="28" width="12" height="12"/><rect x="116" y="28" width="12" height="12"/><rect x="140" y="28" width="12" height="12"/>
    <rect x="92" y="52" width="12" height="12"/><rect x="128" y="52" width="12" height="12"/><rect x="152" y="52" width="12" height="12"/>
    <rect x="104" y="76" width="12" height="12"/><rect x="140" y="76" width="12" height="12"/><rect x="164" y="76" width="12" height="12"/>
    <rect x="92" y="100" width="12" height="12"/><rect x="116" y="100" width="12" height="12"/><rect x="152" y="112" width="12" height="12"/>
    <rect x="92" y="124" width="12" height="12"/><rect x="128" y="124" width="12" height="12"/><rect x="164" y="124" width="12" height="12"/>
    <rect x="104" y="148" width="12" height="12"/><rect x="140" y="148" width="12" height="12"/><rect x="92" y="172" width="12" height="12"/>
    <rect x="116" y="172" width="12" height="12"/><rect x="152" y="172" width="12" height="12"/><rect x="176" y="172" width="12" height="12"/>
    <rect x="104" y="196" width="12" height="12"/><rect x="140" y="196" width="12" height="12"/><rect x="164" y="196" width="12" height="12"/>
  </g>
  <text x="120" y="228" text-anchor="middle" font-family="Arial,sans-serif" font-size="14" font-weight="700" fill="#0284c7">PLIN</text>
</svg>
