<svg xmlns="http://www.w3.org/2000/svg" viewBox="0 0 240 240" role="img" aria-label="QR Yape">
  <rect width="240" height="240" fill="#fff"/>
  <rect x="8" y="8" width="64" height="64" fill="#6d28d9"/>
  <rect x="168" y="8" width="64" height="64" fill="#6d28d9"/>
  <rect x="8" y="168" width="64" height="64" fill="#6d28d9"/>
  <g fill="#111827">
    <rect x="88" y="24" width="12" height="12"/><rect x="112" y="24" width="12" height="12"/><rect x="136" y="24" width="12" height="12"/>
    <rect x="88" y="48" width="12" height="12"/><rect x="124" y="48" width="12" height="12"/><rect x="148" y="48" width="12" height="12"/>
    <rect x="100" y="72" width="12" height="12"/><rect x="136" y="72" width="12" height="12"/><rect x="160" y="72" width="12" height="12"/>
    <rect x="88" y="96" width="12" height="12"/><rect x="112" y="96" width="12" height="12"/><rect x="148" y="108" width="12" height="12"/>
    <rect x="88" y="120" width="12" height="12"/><rect x="124" y="120" width="12" height="12"/><rect x="160" y="120" width="12" height="12"/>
    <rect x="100" y="144" width="12" height="12"/><rect x="136" y="144" width="12" height="12"/><rect x="88" y="168" width="12" height="12"/>
    <rect x="112" y="168" width="12" height="12"/><rect x="148" y="168" width="12" height="12"/><rect x="172" y="168" width="12" height="12"/>
    <rect x="100" y="192" width="12" height="12"/><rect x="136" y="192" width="12" height="12"/><rect x="160" y="192" width="12" height="12"/>
  </g>
  <text x="120" y="228" text-anchor="middle" font-family="Arial,sans-serif" font-size="14" font-weight="700" fill="#6d28d9">YAPE</text>
</svg>
